# This file uses centimeters as units for non-parametric coordinates.

mtllib hololens_fence_newTexture_seg07.mtl
g default
v 137.500000 200.000000 62.500000 1.20000004768 1.20000004768 1.20000004768
v 137.500000 200.000000 37.500000 1.20000004768 1.20000004768 1.20000004768
v 137.500000 100.000000 37.500000 0.40000000596 0.40000000596 0.40000000596
v 137.500000 100.000000 62.500000 0.40000000596 0.40000000596 0.40000000596
v 162.500000 100.000000 62.500000 0.40000000596 0.40000000596 0.40000000596
v 162.500000 100.000000 37.500000 0.40000000596 0.40000000596 0.40000000596
v 162.500000 200.000000 37.500000 1.20000004768 1.20000004768 1.20000004768
v 162.500000 200.000000 62.500000 1.20000004768 1.20000004768 1.20000004768
v 137.500000 200.000000 162.500000 1.20000004768 1.20000004768 1.20000004768
v 137.500000 200.000000 137.500000 1.20000004768 1.20000004768 1.20000004768
v 137.500000 100.000000 137.500000 0.40000000596 0.40000000596 0.40000000596
v 137.500000 100.000000 162.500000 0.40000000596 0.40000000596 0.40000000596
v 162.500000 100.000000 162.500000 0.40000000596 0.40000000596 0.40000000596
v 162.500000 100.000000 137.500000 0.40000000596 0.40000000596 0.40000000596
v 162.500000 200.000000 137.500000 1.20000004768 1.20000004768 1.20000004768
v 162.500000 200.000000 162.500000 1.20000004768 1.20000004768 1.20000004768
v 137.500000 200.000000 262.500000 1.20000004768 1.20000004768 1.20000004768
v 137.500000 200.000000 237.500000 1.20000004768 1.20000004768 1.20000004768
v 137.500000 100.000000 237.500000 0.40000000596 0.40000000596 0.40000000596
v 137.500000 100.000000 262.500000 0.40000000596 0.40000000596 0.40000000596
v 162.500000 100.000000 262.500000 0.40000000596 0.40000000596 0.40000000596
v 162.500000 100.000000 237.500000 0.40000000596 0.40000000596 0.40000000596
v 162.500000 200.000000 237.500000 1.20000004768 1.20000004768 1.20000004768
v 162.500000 200.000000 262.500000 1.20000004768 1.20000004768 1.20000004768
v 137.500000 200.000000 362.500488 1.20000004768 1.20000004768 1.20000004768
v 137.500000 200.000000 337.500488 1.20000004768 1.20000004768 1.20000004768
v 137.500000 100.000000 337.500488 0.40000000596 0.40000000596 0.40000000596
v 137.500000 100.000000 362.500488 0.40000000596 0.40000000596 0.40000000596
v 162.500000 100.000000 362.500488 0.40000000596 0.40000000596 0.40000000596
v 162.500000 100.000000 337.500488 0.40000000596 0.40000000596 0.40000000596
v 162.500000 200.000000 337.500488 1.20000004768 1.20000004768 1.20000004768
v 162.500000 200.000000 362.500488 1.20000004768 1.20000004768 1.20000004768
v 137.500000 200.000000 462.500488 1.20000004768 1.20000004768 1.20000004768
v 137.500000 200.000000 437.500488 1.20000004768 1.20000004768 1.20000004768
v 137.500000 100.000000 437.500488 0.40000000596 0.40000000596 0.40000000596
v 137.500000 100.000000 462.500488 0.40000000596 0.40000000596 0.40000000596
v 162.500000 100.000000 462.500488 0.40000000596 0.40000000596 0.40000000596
v 162.500000 100.000000 437.500488 0.40000000596 0.40000000596 0.40000000596
v 162.500000 200.000000 437.500488 1.20000004768 1.20000004768 1.20000004768
v 162.500000 200.000000 462.500488 1.20000004768 1.20000004768 1.20000004768
v 137.500000 200.000000 562.500488 1.20000004768 1.20000004768 1.20000004768
v 137.500000 200.000000 537.500488 1.20000004768 1.20000004768 1.20000004768
v 137.500000 100.000000 537.500488 0.40000000596 0.40000000596 0.40000000596
v 137.500000 100.000000 562.500488 0.40000000596 0.40000000596 0.40000000596
v 162.500000 100.000000 562.500488 0.40000000596 0.40000000596 0.40000000596
v 162.500000 100.000000 537.500488 0.40000000596 0.40000000596 0.40000000596
v 162.500000 200.000000 537.500488 1.20000004768 1.20000004768 1.20000004768
v 162.500000 200.000000 562.500488 1.20000004768 1.20000004768 1.20000004768
v 137.500000 200.000000 662.500488 1.20000004768 1.20000004768 1.20000004768
v 137.500000 200.000000 637.500488 1.20000004768 1.20000004768 1.20000004768
v 137.500000 100.000000 637.500488 0.40000000596 0.40000000596 0.40000000596
v 137.500000 100.000000 662.500488 0.40000000596 0.40000000596 0.40000000596
v 162.500000 100.000000 662.500488 0.40000000596 0.40000000596 0.40000000596
v 162.500000 100.000000 637.500488 0.40000000596 0.40000000596 0.40000000596
v 162.500000 200.000000 637.500488 1.20000004768 1.20000004768 1.20000004768
v 162.500000 200.000000 662.500488 1.20000004768 1.20000004768 1.20000004768
v 200.000000 99.999878 700.000000 0.695833384991 0.695833384991 0.695833384991
v 100.000000 100.000000 700.000000 0.465039074421 0.465039074421 0.465039074421
v 50.000000 100.000000 700.000000 0.71484375 0.71484375 0.71484375
v 50.000000 50.000000 700.000000 0.479648411274 0.479648411274 0.479648411274
v 0.000000 50.000000 700.000000 0.805989563465 0.805989563465 0.805989563465
v 0.000000 0.000000 700.000000 0.842041015625 0.842041015625 0.842041015625
v 200.000000 0.000000 700.000000 0.698437511921 0.698437511921 0.698437511921
v 143.750000 175.000092 501.786133 0.40000000596 0.40000000596 0.40000000596
v 156.250000 175.000092 501.786133 0.40000000596 0.40000000596 0.40000000596
v 156.250000 193.750092 501.786133 0.40000000596 0.40000000596 0.40000000596
v 143.750000 193.750092 501.786133 0.40000000596 0.40000000596 0.40000000596
v 143.750000 137.500092 501.786133 0.40000000596 0.40000000596 0.40000000596
v 156.250000 137.500092 501.786133 0.40000000596 0.40000000596 0.40000000596
v 156.250000 156.250092 501.786133 0.40000000596 0.40000000596 0.40000000596
v 143.750000 156.250092 501.786133 0.40000000596 0.40000000596 0.40000000596
v 0.000000 0.000000 0.000000 1.0 1.0 1.0
v 0.000000 50.000000 0.000000 0.842041015625 0.842041015625 0.842041015625
v 50.000000 50.000000 0.000000 0.388037085533 0.388037085533 0.388037085533
v 50.000000 100.000000 0.000000 0.66943359375 0.66943359375 0.66943359375
v 100.000000 100.000000 0.000000 0.354150414467 0.354150414467 0.354150414467
v 200.000000 100.000000 0.000000 0.474511742592 0.474511742592 0.474511742592
v 200.000000 0.000000 0.000000 0.759765625 0.759765625 0.759765625
v 143.750000 193.750092 -41.985840 0.40000000596 0.40000000596 0.40000000596
v 156.250000 193.750092 -41.985840 0.40000000596 0.40000000596 0.40000000596
v 156.250000 175.000092 -41.985840 0.40000000596 0.40000000596 0.40000000596
v 143.750000 175.000092 -41.985840 0.40000000596 0.40000000596 0.40000000596
v 143.750000 156.250092 -41.985840 0.40000000596 0.40000000596 0.40000000596
v 156.250000 156.250092 -41.985840 0.40000000596 0.40000000596 0.40000000596
v 156.250000 137.500092 -41.985840 0.40000000596 0.40000000596 0.40000000596
v 143.750000 137.500092 -41.985840 0.40000000596 0.40000000596 0.40000000596
v 143.750000 193.750092 659.849731 0.40000000596 0.40000000596 0.40000000596
v 156.250000 193.750092 659.849731 0.40000000596 0.40000000596 0.40000000596
v 156.250000 175.000092 659.849731 0.40000000596 0.40000000596 0.40000000596
v 143.750000 175.000092 659.849731 0.40000000596 0.40000000596 0.40000000596
v 143.750000 156.250092 659.849731 0.40000000596 0.40000000596 0.40000000596
v 156.250000 156.250092 659.849731 0.40000000596 0.40000000596 0.40000000596
v 156.250000 137.500092 659.849731 0.40000000596 0.40000000596 0.40000000596
v 143.750000 137.500092 659.849731 0.40000000596 0.40000000596 0.40000000596
v 50.000000 0.000000 700.000000 0.503100574017 0.503100574017 0.503100574017
v 100.000000 0.000000 700.000000 0.354150414467 0.354150414467 0.354150414467
vt 0.078247 1.000000
vt 0.046950 1.000000
vt 0.046950 0.875000
vt 0.078247 0.875000
vt 0.078247 1.000000
vt 0.046950 1.000000
vt 0.046950 0.875000
vt 0.078247 0.875000
vt 0.078247 1.000000
vt 0.046950 1.000000
vt 0.046950 0.875000
vt 0.078247 0.875000
vt 0.078247 0.953051
vt 0.046950 0.953051
vt 0.046950 0.921754
vt 0.078247 0.921754
vt 0.078247 1.000000
vt 0.046950 1.000000
vt 0.046950 0.875000
vt 0.078247 0.875000
vt 0.078247 1.000000
vt 0.046950 1.000000
vt 0.046950 0.875000
vt 0.078247 0.875000
vt 0.078247 1.000000
vt 0.046950 1.000000
vt 0.046950 0.875000
vt 0.078247 0.875000
vt 0.078247 1.000000
vt 0.046950 1.000000
vt 0.046950 0.875000
vt 0.078247 0.875000
vt 0.078247 0.953051
vt 0.046950 0.953051
vt 0.046950 0.921754
vt 0.078247 0.921754
vt 0.078247 1.000000
vt 0.046950 1.000000
vt 0.046950 0.875000
vt 0.078247 0.875000
vt 0.078247 1.000000
vt 0.046950 1.000000
vt 0.046950 0.875000
vt 0.078247 0.875000
vt 0.078247 1.000000
vt 0.046950 1.000000
vt 0.046950 0.875000
vt 0.078247 0.875000
vt 0.078247 1.000000
vt 0.046950 1.000000
vt 0.046950 0.875000
vt 0.078247 0.875000
vt 0.078247 0.953051
vt 0.046950 0.953051
vt 0.046950 0.921754
vt 0.078247 0.921754
vt 0.078247 1.000000
vt 0.046950 1.000000
vt 0.046950 0.875000
vt 0.078247 0.875000
vt 0.078247 1.000000
vt 0.046950 1.000000
vt 0.046950 0.875000
vt 0.078247 0.875000
vt 0.078247 1.000000
vt 0.046950 1.000000
vt 0.046950 0.875000
vt 0.078247 0.875000
vt 0.078247 1.000000
vt 0.046950 1.000000
vt 0.046950 0.875000
vt 0.078247 0.875000
vt 0.078247 0.953051
vt 0.046950 0.953051
vt 0.046950 0.921754
vt 0.078247 0.921754
vt 0.078247 1.000000
vt 0.046950 1.000000
vt 0.046950 0.875000
vt 0.078247 0.875000
vt 0.078247 1.000000
vt 0.046950 1.000000
vt 0.046950 0.875000
vt 0.078247 0.875000
vt 0.078247 1.000000
vt 0.046950 1.000000
vt 0.046950 0.875000
vt 0.078247 0.875000
vt 0.078247 1.000000
vt 0.046950 1.000000
vt 0.046950 0.875000
vt 0.078247 0.875000
vt 0.078247 0.953051
vt 0.046950 0.953051
vt 0.046950 0.921754
vt 0.078247 0.921754
vt 0.078247 1.000000
vt 0.046950 1.000000
vt 0.046950 0.875000
vt 0.078247 0.875000
vt 0.078247 1.000000
vt 0.046950 1.000000
vt 0.046950 0.875000
vt 0.078247 0.875000
vt 0.078247 1.000000
vt 0.046950 1.000000
vt 0.046950 0.875000
vt 0.078247 0.875000
vt 0.078247 1.000000
vt 0.046950 1.000000
vt 0.046950 0.875000
vt 0.078247 0.875000
vt 0.078247 0.953051
vt 0.046950 0.953051
vt 0.046950 0.921754
vt 0.078247 0.921754
vt 0.078247 1.000000
vt 0.046950 1.000000
vt 0.046950 0.875000
vt 0.078247 0.875000
vt 0.078247 1.000000
vt 0.046950 1.000000
vt 0.046950 0.875000
vt 0.078247 0.875000
vt 0.078247 1.000000
vt 0.046950 1.000000
vt 0.046950 0.875000
vt 0.078247 0.875000
vt 0.078247 1.000000
vt 0.046950 1.000000
vt 0.046950 0.875000
vt 0.078247 0.875000
vt 0.078247 0.953051
vt 0.046950 0.953051
vt 0.046950 0.921754
vt 0.078247 0.921754
vt 0.078247 1.000000
vt 0.046950 1.000000
vt 0.046950 0.875000
vt 0.078247 0.875000
vt 0.000000 0.625001
vt 0.000000 0.500000
vt 1.000000 0.500000
vt 1.000000 0.625000
vt 1.000000 0.562501
vt 1.000000 0.625000
vt 1.000000 0.562500
vt 1.000000 0.625000
vt 1.000000 0.500000
vt 1.000000 0.562500
vt 1.000000 0.500000
vt 1.000000 0.562499
vt 0.925223 0.967136
vt 0.925223 0.954617
vt 0.052220 0.992176
vt 0.052220 0.968703
vt 0.925223 0.953053
vt 0.925223 0.968701
vt 0.925223 0.968703
vt 0.925223 0.992176
vt 0.053013 0.954617
vt 0.053013 0.967136
vt 0.926075 0.992176
vt 0.926075 0.968703
vt 0.053013 0.968701
vt 0.053013 0.953053
vt 0.053013 0.992176
vt 0.053013 0.968703
vt 0.925223 0.967136
vt 0.925223 0.954617
vt 0.052220 0.945226
vt 0.052220 0.921754
vt 0.925223 0.953053
vt 0.925223 0.968701
vt 0.925223 0.921754
vt 0.925223 0.945226
vt 0.053013 0.954617
vt 0.053013 0.967136
vt 0.926075 0.945226
vt 0.926075 0.921754
vt 0.053013 0.968701
vt 0.053013 0.953053
vt 0.053013 0.945226
vt 0.053013 0.921754
vt 0.125000 0.499999
vt 0.125000 0.500000
vt 0.125000 0.562499
vt 0.125000 0.562500
vt 0.125000 0.562500
vt 0.125000 0.562501
vt 0.125000 0.625000
vt 0.125000 0.500000
vt 0.125000 0.625000
vt 0.875000 0.625000
vt 0.125000 0.625000
vt 0.875000 0.499999
vt 0.244989 0.953053
vt 0.244989 0.992176
vt 0.732757 0.992176
vt 0.244989 0.968701
vt 0.244989 0.968287
vt 0.732757 0.968703
vt 0.244989 0.953467
vt 0.244989 0.968703
vt 0.244989 0.953053
vt 0.244989 0.945226
vt 0.732757 0.945226
vt 0.244989 0.968701
vt 0.244989 0.968287
vt 0.732757 0.921754
vt 0.244989 0.953467
vt 0.244989 0.921754
vt 0.251792 0.953053
vt 0.251792 0.992176
vt 0.727297 0.992176
vt 0.251792 0.968701
vt 0.251792 0.967137
vt 0.727297 0.968703
vt 0.251792 0.954617
vt 0.251792 0.968703
vt 0.251792 0.953053
vt 0.251792 0.945226
vt 0.727297 0.945226
vt 0.251792 0.968701
vt 0.251792 0.967137
vt 0.727297 0.921754
vt 0.251792 0.954617
vt 0.251792 0.921754
vt 0.000000 0.625000
vt 0.000000 0.500000
vt 0.125000 0.500000
vt 0.125000 0.625000
vt 0.125000 0.625000
vt 0.062500 0.562501
vt 0.125000 0.562501
vt 0.125000 0.500000
vt 0.125000 0.562500
vt 0.000000 0.562500
vt 0.000000 0.500000
vt 0.000000 0.625000
vt 0.000000 0.562501
vn -1.000000 0.000000 0.000000
vn -1.000000 0.000000 0.000000
vn -1.000000 0.000000 0.000000
vn -1.000000 0.000000 0.000000
vn 0.000000 0.000000 -1.000000
vn 0.000000 0.000000 -1.000000
vn 0.000000 0.000000 -1.000000
vn 0.000000 0.000000 -1.000000
vn 1.000000 0.000000 0.000000
vn 1.000000 0.000000 0.000000
vn 1.000000 0.000000 0.000000
vn 1.000000 0.000000 0.000000
vn 0.000000 1.000000 0.000000
vn 0.000000 1.000000 0.000000
vn 0.000000 1.000000 0.000000
vn 0.000000 1.000000 0.000000
vn 0.000000 0.000000 1.000000
vn 0.000000 0.000000 1.000000
vn 0.000000 0.000000 1.000000
vn 0.000000 0.000000 1.000000
vn -1.000000 0.000000 0.000000
vn -1.000000 0.000000 0.000000
vn -1.000000 0.000000 0.000000
vn -1.000000 0.000000 0.000000
vn 0.000000 0.000000 -1.000000
vn 0.000000 0.000000 -1.000000
vn 0.000000 0.000000 -1.000000
vn 0.000000 0.000000 -1.000000
vn 1.000000 0.000000 0.000000
vn 1.000000 0.000000 0.000000
vn 1.000000 0.000000 0.000000
vn 1.000000 0.000000 0.000000
vn 0.000000 1.000000 0.000000
vn 0.000000 1.000000 0.000000
vn 0.000000 1.000000 0.000000
vn 0.000000 1.000000 0.000000
vn 0.000000 0.000000 1.000000
vn 0.000000 0.000000 1.000000
vn 0.000000 0.000000 1.000000
vn 0.000000 0.000000 1.000000
vn -1.000000 0.000000 0.000000
vn -1.000000 0.000000 0.000000
vn -1.000000 0.000000 0.000000
vn -1.000000 0.000000 0.000000
vn 0.000000 0.000000 -1.000000
vn 0.000000 0.000000 -1.000000
vn 0.000000 0.000000 -1.000000
vn 0.000000 0.000000 -1.000000
vn 1.000000 0.000000 0.000000
vn 1.000000 0.000000 0.000000
vn 1.000000 0.000000 0.000000
vn 1.000000 0.000000 0.000000
vn 0.000000 1.000000 0.000000
vn 0.000000 1.000000 0.000000
vn 0.000000 1.000000 0.000000
vn 0.000000 1.000000 0.000000
vn 0.000000 0.000000 1.000000
vn 0.000000 0.000000 1.000000
vn 0.000000 0.000000 1.000000
vn 0.000000 0.000000 1.000000
vn -1.000000 0.000000 0.000000
vn -1.000000 0.000000 0.000000
vn -1.000000 0.000000 0.000000
vn -1.000000 0.000000 0.000000
vn 0.000000 0.000000 -1.000000
vn 0.000000 0.000000 -1.000000
vn 0.000000 0.000000 -1.000000
vn 0.000000 0.000000 -1.000000
vn 1.000000 0.000000 0.000000
vn 1.000000 0.000000 0.000000
vn 1.000000 0.000000 0.000000
vn 1.000000 0.000000 0.000000
vn 0.000000 1.000000 0.000000
vn 0.000000 1.000000 0.000000
vn 0.000000 1.000000 0.000000
vn 0.000000 1.000000 0.000000
vn 0.000000 0.000000 1.000000
vn 0.000000 0.000000 1.000000
vn 0.000000 0.000000 1.000000
vn 0.000000 0.000000 1.000000
vn -1.000000 0.000000 0.000000
vn -1.000000 0.000000 0.000000
vn -1.000000 0.000000 0.000000
vn -1.000000 0.000000 0.000000
vn 0.000000 0.000000 -1.000000
vn 0.000000 0.000000 -1.000000
vn 0.000000 0.000000 -1.000000
vn 0.000000 0.000000 -1.000000
vn 1.000000 0.000000 0.000000
vn 1.000000 0.000000 0.000000
vn 1.000000 0.000000 0.000000
vn 1.000000 0.000000 0.000000
vn 0.000000 1.000000 0.000000
vn 0.000000 1.000000 0.000000
vn 0.000000 1.000000 0.000000
vn 0.000000 1.000000 0.000000
vn 0.000000 0.000000 1.000000
vn 0.000000 0.000000 1.000000
vn 0.000000 0.000000 1.000000
vn 0.000000 0.000000 1.000000
vn -1.000000 0.000000 0.000000
vn -1.000000 0.000000 0.000000
vn -1.000000 0.000000 0.000000
vn -1.000000 0.000000 0.000000
vn 0.000000 0.000000 -1.000000
vn 0.000000 0.000000 -1.000000
vn 0.000000 0.000000 -1.000000
vn 0.000000 0.000000 -1.000000
vn 1.000000 0.000000 0.000000
vn 1.000000 0.000000 0.000000
vn 1.000000 0.000000 0.000000
vn 1.000000 0.000000 0.000000
vn 0.000000 1.000000 0.000000
vn 0.000000 1.000000 0.000000
vn 0.000000 1.000000 0.000000
vn 0.000000 1.000000 0.000000
vn 0.000000 0.000000 1.000000
vn 0.000000 0.000000 1.000000
vn 0.000000 0.000000 1.000000
vn 0.000000 0.000000 1.000000
vn -1.000000 0.000000 0.000000
vn -1.000000 0.000000 0.000000
vn -1.000000 0.000000 0.000000
vn -1.000000 0.000000 0.000000
vn 0.000000 0.000000 -1.000000
vn 0.000000 0.000000 -1.000000
vn 0.000000 0.000000 -1.000000
vn 0.000000 0.000000 -1.000000
vn 1.000000 0.000000 0.000000
vn 1.000000 0.000000 0.000000
vn 1.000000 0.000000 0.000000
vn 1.000000 0.000000 0.000000
vn 0.000000 1.000000 0.000000
vn 0.000000 1.000000 0.000000
vn 0.000000 1.000000 0.000000
vn 0.000000 1.000000 0.000000
vn 0.000000 0.000000 1.000000
vn 0.000000 0.000000 1.000000
vn 0.000000 0.000000 1.000000
vn 0.000000 0.000000 1.000000
vn 0.000000 -1.000000 0.000000
vn 0.000000 -1.000000 0.000000
vn 0.000000 -1.000000 0.000000
vn 0.000000 -1.000000 0.000000
vn 1.000000 0.000000 0.000000
vn 1.000000 0.000000 0.000000
vn 1.000000 0.000000 0.000000
vn 1.000000 0.000000 0.000000
vn 0.000000 1.000000 0.000000
vn 0.000000 1.000000 0.000000
vn 0.000000 1.000000 0.000000
vn 0.000000 1.000000 0.000000
vn -1.000000 0.000000 0.000000
vn -1.000000 0.000000 0.000000
vn -1.000000 0.000000 0.000000
vn -1.000000 0.000000 0.000000
vn 0.000000 -1.000000 0.000000
vn 0.000000 -1.000000 0.000000
vn 0.000000 -1.000000 0.000000
vn 0.000000 -1.000000 0.000000
vn 1.000000 0.000000 0.000000
vn 1.000000 0.000000 0.000000
vn 1.000000 0.000000 0.000000
vn 1.000000 0.000000 0.000000
vn 0.000000 1.000000 0.000000
vn 0.000000 1.000000 0.000000
vn 0.000000 1.000000 0.000000
vn 0.000000 1.000000 0.000000
vn -1.000000 0.000000 0.000000
vn -1.000000 0.000000 0.000000
vn -1.000000 0.000000 0.000000
vn -1.000000 0.000000 0.000000
vn -1.000000 0.000000 0.000000
vn -1.000000 0.000000 0.000000
vn -1.000000 0.000000 0.000000
vn -1.000000 0.000000 0.000000
vn 0.000000 1.000000 0.000000
vn 0.000000 1.000000 0.000000
vn 0.000000 1.000000 0.000000
vn 0.000000 1.000000 0.000000
vn -1.000000 0.000000 0.000000
vn -1.000000 0.000000 0.000000
vn -1.000000 0.000000 0.000000
vn -1.000000 0.000000 0.000000
vn 0.000000 1.000000 0.000000
vn 0.000000 1.000000 0.000000
vn 0.000000 1.000000 0.000000
vn 0.000000 1.000000 0.000000
vn 0.000000 1.000000 0.000000
vn 0.000001 1.000000 0.000000
vn 0.000001 1.000000 0.000000
vn 0.000000 1.000000 0.000000
vn 1.000000 0.000000 0.000000
vn 1.000000 0.000000 0.000000
vn 1.000000 0.000000 0.000000
vn 1.000000 0.000000 0.000000
vn 0.000000 1.000000 0.000000
vn 0.000000 1.000000 0.000000
vn 0.000000 1.000000 0.000000
vn 0.000000 1.000000 0.000000
vn 1.000000 0.000000 0.000000
vn 1.000000 0.000000 0.000000
vn 1.000000 0.000000 0.000000
vn 1.000000 0.000000 0.000000
vn 0.000000 -1.000000 0.000000
vn 0.000000 -1.000000 0.000000
vn 0.000000 -1.000000 0.000000
vn 0.000000 -1.000000 0.000000
vn -1.000000 0.000000 0.000000
vn -1.000000 0.000000 0.000000
vn -1.000000 0.000000 0.000000
vn -1.000000 0.000000 0.000000
vn 0.000000 1.000000 0.000000
vn 0.000000 1.000000 0.000000
vn 0.000000 1.000000 0.000000
vn 0.000000 1.000000 0.000000
vn 1.000000 0.000000 0.000000
vn 1.000000 0.000000 0.000000
vn 1.000000 0.000000 0.000000
vn 1.000000 0.000000 0.000000
vn 0.000000 -1.000000 0.000000
vn 0.000000 -1.000000 0.000000
vn 0.000000 -1.000000 0.000000
vn 0.000000 -1.000000 0.000000
vn -1.000000 0.000000 0.000000
vn -1.000000 0.000000 0.000000
vn -1.000000 0.000000 0.000000
vn -1.000000 0.000000 0.000000
vn 0.000000 0.000000 1.000000
vn 0.000000 0.000000 1.000000
vn 0.000000 0.000000 1.000000
vn 0.000000 0.000000 1.000000
vn 0.000000 0.000000 1.000000
vn 0.000000 0.000000 1.000000
vn 0.000000 0.000000 1.000000
vn 0.000000 0.000000 1.000000
vn 0.000000 0.000000 1.000000
vn 0.000000 0.000000 1.000000
vn 0.000000 0.000000 1.000000
vn 0.000000 0.000000 1.000000
vn 0.000000 0.000000 1.000000
s off
g Skirt_MeterBlocks_NewTexture_seg07
usemtl hololens_levelSkirt_newTexture_centerPivot_Large:phong2SG
f 1/1/1 2/2/2 3/3/3 4/4/4
f 2/5/5 7/6/6 6/7/7 3/8/8
f 7/9/9 8/10/10 5/11/11 6/12/12
f 7/13/13 2/14/14 1/15/15 8/16/16
f 8/17/17 1/18/18 4/19/19 5/20/20
f 9/21/21 10/22/22 11/23/23 12/24/24
f 10/25/25 15/26/26 14/27/27 11/28/28
f 15/29/29 16/30/30 13/31/31 14/32/32
f 15/33/33 10/34/34 9/35/35 16/36/36
f 16/37/37 9/38/38 12/39/39 13/40/40
f 17/41/41 18/42/42 19/43/43 20/44/44
f 18/45/45 23/46/46 22/47/47 19/48/48
f 23/49/49 24/50/50 21/51/51 22/52/52
f 23/53/53 18/54/54 17/55/55 24/56/56
f 24/57/57 17/58/58 20/59/59 21/60/60
f 25/61/61 26/62/62 27/63/63 28/64/64
f 26/65/65 31/66/66 30/67/67 27/68/68
f 31/69/69 32/70/70 29/71/71 30/72/72
f 31/73/73 26/74/74 25/75/75 32/76/76
f 32/77/77 25/78/78 28/79/79 29/80/80
f 33/81/81 34/82/82 35/83/83 36/84/84
f 34/85/85 39/86/86 38/87/87 35/88/88
f 39/89/89 40/90/90 37/91/91 38/92/92
f 39/93/93 34/94/94 33/95/95 40/96/96
f 40/97/97 33/98/98 36/99/99 37/100/100
f 41/101/101 42/102/102 43/103/103 44/104/104
f 42/105/105 47/106/106 46/107/107 43/108/108
f 47/109/109 48/110/110 45/111/111 46/112/112
f 47/113/113 42/114/114 41/115/115 48/116/116
f 48/117/117 41/118/118 44/119/119 45/120/120
f 49/121/121 50/122/122 51/123/123 52/124/124
f 50/125/125 55/126/126 54/127/127 51/128/128
f 55/129/129 56/130/130 53/131/131 54/132/132
f 55/133/133 50/134/134 49/135/135 56/136/136
f 56/137/137 49/138/138 52/139/139 53/140/140
f 64/161/141 65/162/142 89/217/143 90/219/144
f 65/164/145 66/163/146 88/215/147 89/218/148
f 66/165/149 67/166/150 87/213/151 88/216/152
f 87/214/153 67/167/154 64/168/155 90/220/156
f 68/177/157 69/178/158 93/225/159 94/227/160
f 69/180/161 70/179/162 92/223/163 93/226/164
f 70/181/165 71/182/166 91/221/167 92/224/168
f 91/222/169 71/183/170 68/184/171 94/228/172
f 61/152/173 73/187/174 72/185/175 62/151/176
f 60/150/177 74/189/178 73/186/179 61/149/180
f 59/148/181 75/191/182 74/188/183 60/147/184
f 58/146/185 76/193/186 75/190/187 59/145/188
f 57/144/189 77/195/190 76/192/191 58/143/192
f 63/142/193 78/196/194 77/194/195 57/141/196
f 80/200/197 79/197/198 67/157/199 66/158/200
f 81/202/201 80/199/202 66/155/203 65/156/204
f 82/203/205 81/201/206 65/153/207 64/154/208
f 67/160/209 79/198/210 82/204/211 64/159/212
f 70/174/213 84/208/214 83/205/215 71/173/216
f 69/172/217 85/210/218 84/207/219 70/171/220
f 86/211/221 85/209/222 69/169/223 68/170/224
f 71/176/225 83/206/226 86/212/227 68/175/228
f 57/229/229 58/230/230 96/231/231 63/232/232
s 1
f 96/233/233 60/234/234 95/235/235
s off
f 62/236/236 95/237/237 60/238/238 61/239/239
s 1
f 58/240/240 59/241/241 60/234/234 96/233/233
