# This file uses centimeters as units for non-parametric coordinates.

mtllib hololens_fence_newTexture_seg02.mtl
g default
v 137.500000 200.000000 62.500000 1.20000004768 1.20000004768 1.20000004768
v 137.500000 200.000000 37.500000 1.20000004768 1.20000004768 1.20000004768
v 137.500000 100.000000 37.500000 0.40000000596 0.40000000596 0.40000000596
v 137.500000 100.000000 62.500000 0.40000000596 0.40000000596 0.40000000596
v 162.500000 100.000000 62.500000 0.40000000596 0.40000000596 0.40000000596
v 162.500000 100.000000 37.500000 0.40000000596 0.40000000596 0.40000000596
v 162.500000 200.000000 37.500000 1.20000004768 1.20000004768 1.20000004768
v 162.500000 200.000000 62.500000 1.20000004768 1.20000004768 1.20000004768
v 137.500000 200.000000 162.500000 1.20000004768 1.20000004768 1.20000004768
v 137.500000 200.000000 137.500000 1.20000004768 1.20000004768 1.20000004768
v 137.500000 100.000000 137.500000 0.40000000596 0.40000000596 0.40000000596
v 137.500000 100.000000 162.500000 0.40000000596 0.40000000596 0.40000000596
v 162.500000 100.000000 162.500000 0.40000000596 0.40000000596 0.40000000596
v 162.500000 100.000000 137.500000 0.40000000596 0.40000000596 0.40000000596
v 162.500000 200.000000 137.500000 1.20000004768 1.20000004768 1.20000004768
v 162.500000 200.000000 162.500000 1.20000004768 1.20000004768 1.20000004768
v 0.000000 0.000000 0.000000 1.0 1.0 1.0
v 0.000000 50.000000 0.000000 0.842041015625 0.842041015625 0.842041015625
v 50.000000 50.000000 0.000000 0.388037085533 0.388037085533 0.388037085533
v 50.000000 100.000000 0.000000 0.66943359375 0.66943359375 0.66943359375
v 100.000000 100.000000 0.000000 0.354150414467 0.354150414467 0.354150414467
v 200.000000 100.000000 0.000000 0.474511742592 0.474511742592 0.474511742592
v 200.000000 0.000000 0.000000 0.759765625 0.759765625 0.759765625
v 143.750000 193.750092 -41.985840 0.40000000596 0.40000000596 0.40000000596
v 156.250000 193.750092 -41.985840 0.40000000596 0.40000000596 0.40000000596
v 156.250000 175.000092 -41.985840 0.40000000596 0.40000000596 0.40000000596
v 143.750000 175.000092 -41.985840 0.40000000596 0.40000000596 0.40000000596
v 143.750000 156.250092 -41.985840 0.40000000596 0.40000000596 0.40000000596
v 156.250000 156.250092 -41.985840 0.40000000596 0.40000000596 0.40000000596
v 156.250000 137.500092 -41.985840 0.40000000596 0.40000000596 0.40000000596
v 143.750000 137.500092 -41.985840 0.40000000596 0.40000000596 0.40000000596
v 0.000000 0.000000 200.000000 0.842041015625 0.842041015625 0.842041015625
v 0.000000 50.000000 200.000000 0.792154967785 0.792154967785 0.792154967785
v 50.000000 50.000000 200.000000 0.476230442524 0.476230442524 0.476230442524
v 50.000000 100.000000 200.000000 0.664388000965 0.664388000965 0.664388000965
v 100.000000 100.000000 200.000000 0.372631847858 0.372631847858 0.372631847858
v 200.000000 99.999878 200.000000 0.525585949421 0.525585949421 0.525585949421
v 200.000000 0.000000 200.000000 0.634960949421 0.634960949421 0.634960949421
v 143.750000 193.750092 161.928711 0.40000000596 0.40000000596 0.40000000596
v 156.250000 193.750092 161.928711 0.40000000596 0.40000000596 0.40000000596
v 156.250000 175.000092 161.928711 0.40000000596 0.40000000596 0.40000000596
v 143.750000 175.000092 161.928711 0.40000000596 0.40000000596 0.40000000596
v 156.250000 156.250092 161.928711 0.40000000596 0.40000000596 0.40000000596
v 156.250000 137.500092 161.928711 0.40000000596 0.40000000596 0.40000000596
v 143.750000 137.500092 161.928711 0.40000000596 0.40000000596 0.40000000596
v 143.750000 156.250092 161.928711 0.40000000596 0.40000000596 0.40000000596
v 50.000000 0.000000 200.000000 0.503100574017 0.503100574017 0.503100574017
v 100.000000 0.000000 200.000000 0.354150414467 0.354150414467 0.354150414467
vt 0.078247 1.000000
vt 0.046950 1.000000
vt 0.046950 0.875000
vt 0.078247 0.875000
vt 0.078247 1.000000
vt 0.046950 1.000000
vt 0.046950 0.875000
vt 0.078247 0.875000
vt 0.078247 1.000000
vt 0.046950 1.000000
vt 0.046950 0.875000
vt 0.078247 0.875000
vt 0.078247 0.953051
vt 0.046950 0.953051
vt 0.046950 0.921754
vt 0.078247 0.921754
vt 0.078247 1.000000
vt 0.046950 1.000000
vt 0.046950 0.875000
vt 0.078247 0.875000
vt 0.078247 1.000000
vt 0.046950 1.000000
vt 0.046950 0.875000
vt 0.078247 0.875000
vt 0.078247 1.000000
vt 0.046950 1.000000
vt 0.046950 0.875000
vt 0.078247 0.875000
vt 0.078247 1.000000
vt 0.046950 1.000000
vt 0.046950 0.875000
vt 0.078247 0.875000
vt 0.078247 0.953051
vt 0.046950 0.953051
vt 0.046950 0.921754
vt 0.078247 0.921754
vt 0.078247 1.000000
vt 0.046950 1.000000
vt 0.046950 0.875000
vt 0.078247 0.875000
vt 0.125000 0.499999
vt 0.125000 0.500000
vt 0.125000 0.562499
vt 0.125000 0.562500
vt 0.125000 0.562500
vt 0.125000 0.562501
vt 0.125000 0.625000
vt 0.125000 0.500000
vt 0.125000 0.625000
vt 0.875000 0.625000
vt 0.125000 0.625000
vt 0.875000 0.499999
vt 0.244989 0.953053
vt 0.244989 0.992176
vt 0.732757 0.992176
vt 0.244989 0.968701
vt 0.244989 0.968287
vt 0.732757 0.968703
vt 0.244989 0.953467
vt 0.244989 0.968703
vt 0.244989 0.953053
vt 0.244989 0.945226
vt 0.732757 0.945226
vt 0.244989 0.968701
vt 0.244989 0.968287
vt 0.732757 0.921754
vt 0.244989 0.953467
vt 0.244989 0.921754
vt 0.375000 0.499999
vt 0.375000 0.500000
vt 0.375000 0.562499
vt 0.375000 0.562500
vt 0.375000 0.562500
vt 0.375000 0.562501
vt 0.375000 0.625000
vt 0.375000 0.500000
vt 0.375000 0.625000
vt 0.625000 0.625000
vt 0.375000 0.625000
vt 0.625000 0.499999
vt 0.500076 0.953053
vt 0.500076 0.992176
vt 0.477555 0.992176
vt 0.500076 0.968701
vt 0.500076 0.967855
vt 0.477555 0.968703
vt 0.500076 0.953898
vt 0.500076 0.968703
vt 0.477555 0.945226
vt 0.500076 0.968701
vt 0.500076 0.967855
vt 0.477555 0.921754
vt 0.500076 0.953898
vt 0.500076 0.921754
vt 0.500076 0.953053
vt 0.500076 0.945226
vt 0.000000 0.625000
vt 0.000000 0.500000
vt 0.125000 0.500000
vt 0.125000 0.625000
vt 0.125000 0.625000
vt 0.062500 0.562501
vt 0.125000 0.562501
vt 0.125000 0.500000
vt 0.125000 0.562500
vt 0.000000 0.562500
vt 0.000000 0.500000
vt 0.000000 0.625000
vt 0.000000 0.562501
vn -1.000000 0.000000 0.000000
vn -1.000000 0.000000 0.000000
vn -1.000000 0.000000 0.000000
vn -1.000000 0.000000 0.000000
vn 0.000000 0.000000 -1.000000
vn 0.000000 0.000000 -1.000000
vn 0.000000 0.000000 -1.000000
vn 0.000000 0.000000 -1.000000
vn 1.000000 0.000000 0.000000
vn 1.000000 0.000000 0.000000
vn 1.000000 0.000000 0.000000
vn 1.000000 0.000000 0.000000
vn 0.000000 1.000000 0.000000
vn 0.000000 1.000000 0.000000
vn 0.000000 1.000000 0.000000
vn 0.000000 1.000000 0.000000
vn 0.000000 0.000000 1.000000
vn 0.000000 0.000000 1.000000
vn 0.000000 0.000000 1.000000
vn 0.000000 0.000000 1.000000
vn -1.000000 0.000000 0.000000
vn -1.000000 0.000000 0.000000
vn -1.000000 0.000000 0.000000
vn -1.000000 0.000000 0.000000
vn 0.000000 0.000000 -1.000000
vn 0.000000 0.000000 -1.000000
vn 0.000000 0.000000 -1.000000
vn 0.000000 0.000000 -1.000000
vn 1.000000 0.000000 0.000000
vn 1.000000 0.000000 0.000000
vn 1.000000 0.000000 0.000000
vn 1.000000 0.000000 0.000000
vn 0.000000 1.000000 0.000000
vn 0.000000 1.000000 0.000000
vn 0.000000 1.000000 0.000000
vn 0.000000 1.000000 0.000000
vn 0.000000 0.000000 1.000000
vn 0.000000 0.000000 1.000000
vn 0.000000 0.000000 1.000000
vn 0.000000 0.000000 1.000000
vn -1.000000 0.000000 0.000000
vn -1.000000 0.000000 0.000000
vn -1.000000 0.000000 0.000000
vn -1.000000 0.000000 0.000000
vn 0.000000 1.000000 0.000000
vn 0.000000 1.000000 0.000000
vn 0.000000 1.000000 0.000000
vn 0.000000 1.000000 0.000000
vn -1.000000 0.000000 0.000000
vn -1.000000 0.000000 0.000000
vn -1.000000 0.000000 0.000000
vn -1.000000 0.000000 0.000000
vn 0.000000 1.000000 0.000000
vn 0.000000 1.000000 0.000000
vn 0.000000 1.000000 0.000000
vn 0.000000 1.000000 0.000000
vn 0.000001 1.000000 0.000000
vn 0.000001 1.000000 0.000000
vn 0.000001 1.000000 0.000000
vn 0.000001 1.000000 0.000000
vn 1.000000 0.000000 0.000000
vn 1.000000 0.000000 0.000000
vn 1.000000 0.000000 0.000000
vn 1.000000 0.000000 0.000000
vn 0.000000 1.000000 0.000000
vn 0.000000 1.000000 0.000000
vn 0.000000 1.000000 0.000000
vn 0.000000 1.000000 0.000000
vn 1.000000 0.000000 0.000000
vn 1.000000 0.000000 0.000000
vn 1.000000 0.000000 0.000000
vn 1.000000 0.000000 0.000000
vn 0.000000 -1.000000 0.000000
vn 0.000000 -1.000000 0.000000
vn 0.000000 -1.000000 0.000000
vn 0.000000 -1.000000 0.000000
vn -1.000000 0.000000 0.000000
vn -1.000000 0.000000 0.000000
vn -1.000000 0.000000 0.000000
vn -1.000000 0.000000 0.000000
vn 0.000000 1.000000 0.000000
vn 0.000000 1.000000 0.000000
vn 0.000000 1.000000 0.000000
vn 0.000000 1.000000 0.000000
vn 1.000000 0.000000 0.000000
vn 1.000000 0.000000 0.000000
vn 1.000000 0.000000 0.000000
vn 1.000000 0.000000 0.000000
vn 0.000000 -1.000000 0.000000
vn 0.000000 -1.000000 0.000000
vn 0.000000 -1.000000 0.000000
vn 0.000000 -1.000000 0.000000
vn -1.000000 0.000000 0.000000
vn -1.000000 0.000000 0.000000
vn -1.000000 0.000000 0.000000
vn -1.000000 0.000000 0.000000
vn 0.000000 0.000000 1.000000
vn 0.000000 0.000000 1.000000
vn 0.000000 0.000000 1.000000
vn 0.000000 0.000000 1.000000
vn 0.000000 0.000000 1.000000
vn 0.000000 0.000000 1.000000
vn 0.000000 0.000000 1.000000
vn 0.000000 0.000000 1.000000
vn 0.000000 0.000000 1.000000
vn 0.000000 0.000000 1.000000
vn 0.000000 0.000000 1.000000
vn 0.000000 0.000000 1.000000
vn 0.000000 0.000000 1.000000
s off
g Skirt_MeterBlocks_NewTexture_seg02
usemtl hololens_levelSkirt_newTexture_centerPivot_Large:phong2SG
f 1/1/1 2/2/2 3/3/3 4/4/4
f 2/5/5 7/6/6 6/7/7 3/8/8
f 7/9/9 8/10/10 5/11/11 6/12/12
f 7/13/13 2/14/14 1/15/15 8/16/16
f 8/17/17 1/18/18 4/19/19 5/20/20
f 9/21/21 10/22/22 11/23/23 12/24/24
f 10/25/25 15/26/26 14/27/27 11/28/28
f 15/29/29 16/30/30 13/31/31 14/32/32
f 15/33/33 10/34/34 9/35/35 16/36/36
f 16/37/37 9/38/38 12/39/39 13/40/40
f 18/43/41 17/41/42 32/69/43 33/71/44
f 19/45/45 18/42/46 33/70/47 34/73/48
f 20/47/49 19/44/50 34/72/51 35/75/52
f 21/49/53 20/46/54 35/74/55 36/77/56
f 22/51/57 21/48/58 36/76/59 37/79/60
f 38/80/61 23/52/62 22/50/63 37/78/64
f 25/56/65 24/53/66 39/81/67 40/84/68
f 26/58/69 25/55/70 40/83/71 41/86/72
f 27/59/73 26/57/74 41/85/75 42/87/76
f 39/82/77 24/54/78 27/60/79 42/88/80
f 43/90/81 29/64/82 28/61/83 46/95/84
f 30/66/85 29/63/86 43/89/87 44/92/88
f 31/67/89 30/65/90 44/91/91 45/93/92
f 28/62/93 31/68/94 45/94/95 46/96/96
f 37/97/97 36/98/98 48/99/99 38/100/100
s 1
f 48/101/101 34/102/102 47/103/103
s off
f 32/104/104 47/105/105 34/106/106 33/107/107
s 1
f 36/108/108 35/109/109 34/102/102 48/101/101
